<svg width="418" height="537" viewBox="0 0 418 537" fill="none" xmlns="http://www.w3.org/2000/svg">
<path fill-rule="evenodd" clip-rule="evenodd" d="M43 227.375C43 227.375 115.671 234.534 216.216 183.42C261.371 160.464 335.222 95.0516 335.222 95.0516L346.178 105.138C346.178 105.138 347.363 91.51 347.972 84.9066C348.56 78.5437 349.83 65.5201 349.83 65.5201L309.772 70.4042L321.317 81.7622C321.317 81.7622 310.104 93.709 293.279 108.146C269.418 128.621 234.979 155.285 211.36 170.161C137.544 216.653 43 227.375 43 227.375Z" fill="url(#paint0_linear)"/>
<path fill-rule="evenodd" clip-rule="evenodd" d="M393.314 30.4382L402.648 40.5411L405.366 25.6322L418 21.0302L406.973 13.6171L405.108 0L394.921 8.81106L380.147 6.42682L386.886 18.4231L380.029 31.0776L393.314 30.4382Z" fill="url(#paint1_linear)"/>
<path fill-rule="evenodd" clip-rule="evenodd" d="M353.896 9.89718L355.77 19.7107L363.505 24.3844L355.551 27.2342L354.13 36.4171L347.449 30.6935L338.309 30.5757L341.824 23.3329L338.543 16.5562L347.918 16.9078L353.896 9.89718Z" fill="#1DC065"/>
<path fill-rule="evenodd" clip-rule="evenodd" d="M256.376 176.84V354.954H330.151V120.016C330.151 120.016 315.233 134.618 295.056 150.501C270.041 170.194 256.376 176.84 256.376 176.84Z" fill="url(#paint2_linear)"/>
<path fill-rule="evenodd" clip-rule="evenodd" d="M51.0426 242.991C51.0426 242.991 67.8038 243.077 74.7246 242.62C83.9389 242.011 92.5288 239.781 92.5288 239.781V354.961H51.0426V242.991Z" fill="url(#paint3_linear)"/>
<path fill-rule="evenodd" clip-rule="evenodd" d="M140.892 229.854C140.892 229.854 155.223 226.201 170.724 221.465C188.499 216.031 200.26 208.462 200.26 208.462V355H141.248L140.892 229.854Z" fill="url(#paint4_linear)"/>
<path d="M0 450.884V387H28.0979V441.392H53.0399L53.6508 450.884H0ZM106.08 450.884L101.601 441.392H73.2989L69.125 450.884H57.3157L81.1379 397.221L76.4549 387H108.32L136.723 450.884H106.08ZM87.2461 410.363L77.1675 432.722H97.6302L87.2461 410.363ZM144.765 387H177.139C179.854 387 182.772 387.152 185.894 387.456C189.016 387.761 191.901 388.415 194.548 389.418C197.195 390.422 199.4 391.883 201.165 393.799C202.93 395.716 203.812 398.256 203.812 401.419C203.812 402.941 203.439 404.659 202.692 406.576C201.945 408.492 200.52 410.15 198.416 411.55C201.742 412.341 204.558 413.451 206.866 414.881C209.174 416.31 211.074 417.923 212.567 419.718C214.06 421.512 215.146 423.429 215.825 425.467C216.503 427.505 216.843 429.528 216.843 431.536C216.843 434.639 216.232 437.392 215.01 439.795C213.789 442.199 211.803 444.221 209.055 445.864C206.306 447.507 202.709 448.754 198.263 449.606C193.818 450.458 188.405 450.884 182.026 450.884H144.765V387ZM172.863 423.779V435.917C172.863 437.985 173.457 439.415 174.645 440.206C175.833 440.997 177.445 441.392 179.481 441.392C182.467 441.392 184.554 440.48 185.742 438.654C186.929 436.829 187.523 434.456 187.523 431.536C187.523 430.319 187.303 429.026 186.861 427.657C186.42 426.288 185.792 425.011 184.978 423.824C184.164 422.638 183.196 421.649 182.077 420.858C180.957 420.067 179.752 419.672 178.463 419.672C176.698 419.672 175.324 419.976 174.34 420.585C173.356 421.193 172.863 422.258 172.863 423.779ZM172.863 399.959V412.188C174.017 411.884 175.493 411.565 177.292 411.23C179.09 410.896 180.872 410.637 182.637 410.454C183.858 409.116 184.469 407.199 184.469 404.705C184.469 402.21 183.875 400.127 182.688 398.453C181.5 396.78 179.549 395.944 176.834 395.944C175.476 395.944 174.475 396.415 173.83 397.358C173.186 398.301 172.863 399.168 172.863 399.959ZM269.781 410.272L269.17 419.763H254.409V450.884H226.311V387H274.362L273.751 396.491H254.409V410.272H269.781ZM283.83 450.884V387H311.928V450.884H283.83ZM324.959 450.884V387H349.086L366.902 421.041V387H395V450.884H370.974L353.057 416.934V450.884H324.959Z" fill="#1F931A"/>
<path d="M43.3226 504.012V481.238H54.1612V500.628H63.7825L64.0181 504.012H43.3226ZM84.2423 504.012L82.5144 500.628H71.5973L69.9872 504.012H65.4318L74.6211 484.882L72.8147 481.238H85.1063L96.0627 504.012H84.2423ZM76.9773 489.567L73.0895 497.538H80.9829L76.9773 489.567ZM99.1651 481.238H111.653C112.7 481.238 113.826 481.292 115.03 481.401C116.235 481.509 117.347 481.742 118.368 482.1C119.389 482.458 120.24 482.979 120.921 483.662C121.602 484.345 121.942 485.251 121.942 486.378C121.942 486.921 121.798 487.533 121.51 488.217C121.222 488.9 120.672 489.491 119.861 489.99C121.143 490.272 122.23 490.668 123.12 491.177C124.01 491.687 124.743 492.262 125.319 492.902C125.895 493.541 126.314 494.225 126.576 494.951C126.838 495.678 126.969 496.399 126.969 497.115C126.969 498.221 126.733 499.202 126.262 500.059C125.79 500.916 125.025 501.637 123.964 502.223C122.904 502.808 121.517 503.253 119.802 503.557C118.087 503.86 115.999 504.012 113.538 504.012H99.1651V481.238ZM110.004 494.349V498.676C110.004 499.414 110.233 499.924 110.691 500.205C111.149 500.487 111.771 500.628 112.556 500.628C113.708 500.628 114.513 500.303 114.971 499.652C115.43 499.002 115.659 498.156 115.659 497.115C115.659 496.681 115.574 496.22 115.403 495.732C115.233 495.244 114.991 494.789 114.677 494.366C114.363 493.943 113.99 493.59 113.558 493.308C113.126 493.026 112.661 492.885 112.164 492.885C111.483 492.885 110.953 492.994 110.573 493.211C110.194 493.428 110.004 493.807 110.004 494.349ZM110.004 485.858V490.217C110.449 490.109 111.018 489.995 111.712 489.876C112.406 489.757 113.093 489.664 113.774 489.599C114.245 489.122 114.481 488.439 114.481 487.55C114.481 486.66 114.252 485.918 113.793 485.321C113.335 484.725 112.583 484.426 111.535 484.426C111.012 484.426 110.626 484.594 110.377 484.931C110.128 485.267 110.004 485.576 110.004 485.858ZM129.364 492.625C129.364 490.912 129.75 489.328 130.523 487.875C131.295 486.422 132.388 485.164 133.802 484.101C135.215 483.038 136.911 482.214 138.887 481.628C140.864 481.043 143.069 480.75 145.504 480.75C147.939 480.75 150.145 481.043 152.121 481.628C154.098 482.214 155.793 483.038 157.207 484.101C158.621 485.164 159.714 486.422 160.486 487.875C161.258 489.328 161.644 490.912 161.644 492.625C161.644 494.36 161.258 495.949 160.486 497.391C159.714 498.834 158.621 500.086 157.207 501.149C155.793 502.212 154.098 503.036 152.121 503.622C150.145 504.207 147.939 504.5 145.504 504.5C143.069 504.5 140.864 504.207 138.887 503.622C136.911 503.036 135.215 502.212 133.802 501.149C132.388 500.086 131.295 498.834 130.523 497.391C129.75 495.949 129.364 494.36 129.364 492.625ZM145.229 484.101C144.287 484.101 143.528 484.296 142.952 484.687C142.376 485.077 141.931 485.581 141.616 486.199C141.302 486.818 141.093 487.512 140.988 488.282C140.883 489.052 140.831 489.805 140.831 490.543C140.831 491.02 140.838 491.616 140.851 492.332C140.864 493.048 140.91 493.796 140.988 494.577C141.067 495.358 141.204 496.139 141.4 496.92C141.597 497.7 141.878 498.405 142.245 499.034C142.611 499.663 143.083 500.173 143.659 500.563C144.234 500.954 144.941 501.149 145.779 501.149C146.722 501.149 147.481 500.954 148.057 500.563C148.633 500.173 149.078 499.669 149.392 499.051C149.706 498.432 149.916 497.738 150.02 496.968C150.125 496.198 150.177 495.445 150.177 494.707C150.177 494.23 150.171 493.634 150.158 492.918C150.145 492.202 150.099 491.454 150.02 490.673C149.942 489.892 149.804 489.111 149.608 488.33C149.412 487.55 149.13 486.845 148.764 486.216C148.397 485.587 147.926 485.077 147.35 484.687C146.774 484.296 146.067 484.101 145.229 484.101ZM193.453 490.413C193.453 491.584 193.198 492.647 192.688 493.601C192.177 494.555 191.47 495.385 190.567 496.09C189.664 496.795 188.604 497.375 187.386 497.83C186.169 498.286 184.866 498.611 183.479 498.806C184.631 498.785 185.763 498.866 186.876 499.051C187.988 499.235 189.029 499.441 189.998 499.669C190.966 499.896 191.843 500.113 192.629 500.319C193.414 500.525 194.082 500.628 194.631 500.628H195.77L195.063 504.012H188.859C188.126 504.012 187.386 503.979 186.64 503.914C185.894 503.849 185.174 503.735 184.48 503.573C183.786 503.41 183.125 503.188 182.497 502.906C181.869 502.624 181.306 502.255 180.808 501.8C180.128 501.192 179.408 500.731 178.648 500.417C177.889 500.102 177.091 499.967 176.253 500.01V504.012H165.414V481.238H177.785C180.219 481.238 182.399 481.449 184.323 481.872C186.247 482.295 187.89 482.908 189.251 483.711C190.613 484.513 191.654 485.478 192.374 486.606C193.093 487.734 193.453 489.003 193.453 490.413ZM177.785 484.459C177.261 484.459 176.875 484.584 176.626 484.833C176.377 485.082 176.253 485.381 176.253 485.728V493.536C176.253 495.64 177.156 496.692 178.963 496.692C179.539 496.692 180.016 496.535 180.396 496.22C180.776 495.906 181.077 495.515 181.299 495.049C181.522 494.582 181.679 494.073 181.77 493.52C181.862 492.967 181.908 492.451 181.908 491.974C181.908 491.649 181.908 491.242 181.908 490.754C181.908 490.266 181.875 489.74 181.81 489.176C181.744 488.612 181.64 488.054 181.496 487.501C181.352 486.948 181.123 486.443 180.808 485.988C180.494 485.533 180.095 485.164 179.611 484.882C179.126 484.6 178.518 484.459 177.785 484.459ZM215.916 504.012L214.188 500.628H203.271L201.661 504.012H197.106L206.295 484.882L204.488 481.238H216.78L227.736 504.012H215.916ZM208.651 489.567L204.763 497.538H212.657L208.651 489.567ZM227.54 484.622L227.305 481.238H248.275L247.961 484.622H243.209V504.012H232.37V484.622H227.54ZM248.982 492.625C248.982 490.912 249.368 489.328 250.14 487.875C250.913 486.422 252.006 485.164 253.419 484.101C254.833 483.038 256.528 482.214 258.505 481.628C260.482 481.043 262.687 480.75 265.122 480.75C267.557 480.75 269.762 481.043 271.739 481.628C273.716 482.214 275.411 483.038 276.825 484.101C278.238 485.164 279.331 486.422 280.104 487.875C280.876 489.328 281.262 490.912 281.262 492.625C281.262 494.36 280.876 495.949 280.104 497.391C279.331 498.834 278.238 500.086 276.825 501.149C275.411 502.212 273.716 503.036 271.739 503.622C269.762 504.207 267.557 504.5 265.122 504.5C262.687 504.5 260.482 504.207 258.505 503.622C256.528 503.036 254.833 502.212 253.419 501.149C252.006 500.086 250.913 498.834 250.14 497.391C249.368 495.949 248.982 494.36 248.982 492.625ZM264.847 484.101C263.905 484.101 263.145 484.296 262.569 484.687C261.993 485.077 261.548 485.581 261.234 486.199C260.92 486.818 260.711 487.512 260.606 488.282C260.501 489.052 260.449 489.805 260.449 490.543C260.449 491.02 260.455 491.616 260.468 492.332C260.481 493.048 260.527 493.796 260.606 494.577C260.684 495.358 260.822 496.139 261.018 496.92C261.215 497.7 261.496 498.405 261.863 499.034C262.229 499.663 262.7 500.173 263.276 500.563C263.852 500.954 264.559 501.149 265.397 501.149C266.339 501.149 267.099 500.954 267.675 500.563C268.251 500.173 268.696 499.669 269.01 499.051C269.324 498.432 269.533 497.738 269.638 496.968C269.743 496.198 269.795 495.445 269.795 494.707C269.795 494.23 269.789 493.634 269.775 492.918C269.762 492.202 269.717 491.454 269.638 490.673C269.559 489.892 269.422 489.111 269.226 488.33C269.029 487.55 268.748 486.845 268.381 486.216C268.015 485.587 267.544 485.077 266.968 484.687C266.392 484.296 265.685 484.101 264.847 484.101ZM313.071 490.413C313.071 491.584 312.816 492.647 312.305 493.601C311.795 494.555 311.088 495.385 310.185 496.09C309.282 496.795 308.221 497.375 307.004 497.83C305.787 498.286 304.484 498.611 303.096 498.806C304.248 498.785 305.381 498.866 306.493 499.051C307.606 499.235 308.647 499.441 309.615 499.669C310.584 499.896 311.461 500.113 312.247 500.319C313.032 500.525 313.699 500.628 314.249 500.628H315.388L314.681 504.012H308.477C307.743 504.012 307.004 503.979 306.258 503.914C305.512 503.849 304.792 503.735 304.098 503.573C303.404 503.41 302.743 503.188 302.115 502.906C301.486 502.624 300.923 502.255 300.426 501.8C299.745 501.192 299.025 500.731 298.266 500.417C297.507 500.102 296.708 499.967 295.871 500.01V504.012H285.032V481.238H297.402C299.837 481.238 302.017 481.449 303.941 481.872C305.865 482.295 307.508 482.908 308.869 483.711C310.231 484.513 311.271 485.478 311.991 486.606C312.711 487.734 313.071 489.003 313.071 490.413ZM297.402 484.459C296.879 484.459 296.492 484.584 296.244 484.833C295.995 485.082 295.871 485.381 295.871 485.728V493.536C295.871 495.64 296.774 496.692 298.58 496.692C299.156 496.692 299.634 496.535 300.014 496.22C300.393 495.906 300.694 495.515 300.917 495.049C301.14 494.582 301.297 494.073 301.388 493.52C301.48 492.967 301.526 492.451 301.526 491.974C301.526 491.649 301.526 491.242 301.526 490.754C301.526 490.266 301.493 489.74 301.427 489.176C301.362 488.612 301.257 488.054 301.113 487.501C300.969 486.948 300.74 486.443 300.426 485.988C300.112 485.533 299.713 485.164 299.228 484.882C298.744 484.6 298.135 484.459 297.402 484.459ZM318.805 504.012V481.238H329.643V504.012H318.805ZM333.413 492.625C333.413 490.912 333.799 489.328 334.572 487.875C335.344 486.422 336.437 485.164 337.851 484.101C339.265 483.038 340.96 482.214 342.936 481.628C344.913 481.043 347.119 480.75 349.553 480.75C351.988 480.75 354.194 481.043 356.17 481.628C358.147 482.214 359.842 483.038 361.256 484.101C362.67 485.164 363.763 486.422 364.535 487.875C365.307 489.328 365.694 490.912 365.694 492.625C365.694 494.36 365.307 495.949 364.535 497.391C363.763 498.834 362.67 500.086 361.256 501.149C359.842 502.212 358.147 503.036 356.17 503.622C354.194 504.207 351.988 504.5 349.553 504.5C347.119 504.5 344.913 504.207 342.936 503.622C340.96 503.036 339.265 502.212 337.851 501.149C336.437 500.086 335.344 498.834 334.572 497.391C333.799 495.949 333.413 494.36 333.413 492.625ZM349.279 484.101C348.336 484.101 347.577 484.296 347.001 484.687C346.425 485.077 345.98 485.581 345.666 486.199C345.351 486.818 345.142 487.512 345.037 488.282C344.933 489.052 344.88 489.805 344.88 490.543C344.88 491.02 344.887 491.616 344.9 492.332C344.913 493.048 344.959 493.796 345.037 494.577C345.116 495.358 345.253 496.139 345.45 496.92C345.646 497.7 345.927 498.405 346.294 499.034C346.66 499.663 347.132 500.173 347.708 500.563C348.284 500.954 348.991 501.149 349.828 501.149C350.771 501.149 351.53 500.954 352.106 500.563C352.682 500.173 353.127 499.669 353.441 499.051C353.755 498.432 353.965 497.738 354.069 496.968C354.174 496.198 354.227 495.445 354.227 494.707C354.227 494.23 354.22 493.634 354.207 492.918C354.194 492.202 354.148 491.454 354.069 490.673C353.991 489.892 353.853 489.111 353.657 488.33C353.461 487.55 353.179 486.845 352.813 486.216C352.446 485.587 351.975 485.077 351.399 484.687C350.823 484.296 350.116 484.101 349.279 484.101Z" fill="#5F5F5F"/>
<path d="M82.9058 522.822L82.6719 526.027H77.0187V536.538H66.2581V514.962H84.6602L84.4263 518.168H77.0187V522.822H82.9058ZM88.2861 536.538V514.962H99.0467V536.538H88.2861ZM104.037 536.538V514.962H113.277L120.1 526.459V514.962H130.861V536.538H121.659L114.798 525.072V536.538H104.037ZM152.616 536.538L150.9 533.332H140.062L138.463 536.538H133.941L143.064 518.414L141.27 514.962H153.473L164.351 536.538H152.616ZM145.403 522.853L141.543 530.404H149.38L145.403 522.853ZM167.431 536.538V514.962H176.671L183.494 526.459V514.962H194.254V536.538H185.053L178.191 525.072V536.538H167.431ZM197.997 525.75C197.997 524.127 198.381 522.632 199.147 521.265C199.914 519.899 200.993 518.723 202.383 517.736C203.774 516.75 205.457 515.985 207.432 515.44C209.408 514.896 211.604 514.623 214.021 514.623C214.645 514.623 215.379 514.649 216.224 514.7C217.069 514.752 217.816 514.839 218.466 514.962L217.647 517.829H213.514C212.605 517.829 211.883 518.019 211.35 518.399C210.818 518.779 210.402 519.267 210.103 519.863C209.804 520.459 209.609 521.122 209.518 521.851C209.427 522.58 209.382 523.284 209.382 523.962C209.382 524.168 209.375 524.548 209.362 525.103C209.349 525.658 209.375 526.289 209.44 526.998C209.505 527.707 209.628 528.442 209.81 529.202C209.992 529.962 210.278 530.661 210.668 531.298C211.058 531.935 211.558 532.459 212.169 532.87C212.78 533.281 213.566 533.486 214.528 533.486H218.583L218.076 536.384C217.426 536.507 216.744 536.594 216.029 536.646C215.314 536.697 214.645 536.723 214.021 536.723C211.604 536.723 209.408 536.455 207.432 535.921C205.457 535.387 203.774 534.642 202.383 533.687C200.993 532.731 199.914 531.58 199.147 530.235C198.381 528.889 197.997 527.394 197.997 525.75ZM222.52 536.538V514.962H233.281V536.538H222.52ZM258.584 533.332L258.818 536.538H238.271V514.962H256.674L256.44 518.168H249.032V522.822H254.919L254.685 526.027H249.032V533.332H258.584ZM290.515 523.654C290.515 524.764 290.261 525.771 289.755 526.675C289.248 527.579 288.546 528.365 287.649 529.033C286.752 529.7 285.7 530.25 284.491 530.682C283.283 531.113 281.989 531.421 280.612 531.606C281.756 531.586 282.88 531.663 283.984 531.837C285.089 532.012 286.122 532.207 287.084 532.423C288.046 532.639 288.916 532.844 289.696 533.039C290.476 533.235 291.139 533.332 291.684 533.332H292.815L292.113 536.538H285.953C285.225 536.538 284.491 536.507 283.75 536.445C283.01 536.384 282.295 536.276 281.606 536.122C280.917 535.967 280.261 535.757 279.637 535.49C279.013 535.223 278.455 534.873 277.961 534.442C277.285 533.866 276.57 533.43 275.816 533.132C275.063 532.834 274.27 532.705 273.438 532.747V536.538H262.678V514.962H274.959C277.376 514.962 279.54 515.163 281.45 515.563C283.361 515.964 284.991 516.545 286.343 517.305C287.695 518.065 288.728 518.979 289.443 520.048C290.157 521.116 290.515 522.318 290.515 523.654ZM274.959 518.014C274.439 518.014 274.056 518.132 273.809 518.368C273.562 518.604 273.438 518.887 273.438 519.216V526.613C273.438 528.606 274.335 529.603 276.128 529.603C276.7 529.603 277.175 529.454 277.551 529.156C277.928 528.858 278.227 528.488 278.448 528.046C278.669 527.604 278.825 527.122 278.916 526.598C279.007 526.074 279.052 525.586 279.052 525.134C279.052 524.825 279.052 524.44 279.052 523.978C279.052 523.515 279.02 523.017 278.955 522.483C278.89 521.949 278.786 521.42 278.643 520.896C278.5 520.372 278.273 519.894 277.961 519.462C277.649 519.031 277.252 518.682 276.772 518.414C276.291 518.147 275.686 518.014 274.959 518.014ZM296.207 536.538V514.962H306.967V536.538H296.207ZM310.71 525.75C310.71 524.127 311.094 522.627 311.86 521.25C312.627 519.873 313.712 518.681 315.116 517.675C316.519 516.668 318.202 515.887 320.165 515.332C322.127 514.777 324.317 514.5 326.734 514.5C329.151 514.5 331.341 514.777 333.304 515.332C335.266 515.887 336.949 516.668 338.352 517.675C339.756 518.681 340.841 519.873 341.608 521.25C342.375 522.627 342.758 524.127 342.758 525.75C342.758 527.394 342.375 528.899 341.608 530.265C340.841 531.632 339.756 532.818 338.352 533.825C336.949 534.832 335.266 535.613 333.304 536.168C331.341 536.723 329.151 537 326.734 537C324.317 537 322.127 536.723 320.165 536.168C318.202 535.613 316.519 534.832 315.116 533.825C313.712 532.818 312.627 531.632 311.86 530.265C311.094 528.899 310.71 527.394 310.71 525.75ZM326.461 517.675C325.526 517.675 324.772 517.86 324.2 518.229C323.628 518.599 323.186 519.077 322.874 519.663C322.563 520.248 322.355 520.906 322.251 521.635C322.147 522.365 322.095 523.079 322.095 523.777C322.095 524.229 322.101 524.795 322.114 525.473C322.127 526.151 322.173 526.86 322.251 527.599C322.329 528.339 322.465 529.079 322.66 529.818C322.855 530.558 323.134 531.226 323.498 531.822C323.862 532.418 324.33 532.901 324.902 533.271C325.474 533.64 326.175 533.825 327.007 533.825C327.943 533.825 328.697 533.64 329.268 533.271C329.84 532.901 330.282 532.423 330.594 531.837C330.906 531.252 331.114 530.594 331.218 529.865C331.322 529.135 331.374 528.421 331.374 527.723C331.374 527.271 331.367 526.705 331.354 526.027C331.341 525.349 331.296 524.64 331.218 523.901C331.14 523.161 331.003 522.421 330.808 521.682C330.613 520.942 330.334 520.274 329.97 519.678C329.606 519.082 329.138 518.599 328.567 518.229C327.995 517.86 327.293 517.675 326.461 517.675Z" fill="#5F5F5F"/>
<defs>
<linearGradient id="paint0_linear" x1="196.415" y1="65.5201" x2="196.415" y2="227.718" gradientUnits="userSpaceOnUse">
<stop stop-color="#FE9306"/>
<stop offset="1" stop-color="#F3D77E"/>
</linearGradient>
<linearGradient id="paint1_linear" x1="399.014" y1="0" x2="399.014" y2="40.5411" gradientUnits="userSpaceOnUse">
<stop stop-color="#F7BF54"/>
<stop offset="1" stop-color="#FC9B15"/>
</linearGradient>
<linearGradient id="paint2_linear" x1="293.264" y1="120.016" x2="293.264" y2="354.954" gradientUnits="userSpaceOnUse">
<stop stop-color="#18A350"/>
<stop offset="1" stop-color="#04944E"/>
</linearGradient>
<linearGradient id="paint3_linear" x1="71.7857" y1="239.781" x2="71.7857" y2="354.961" gradientUnits="userSpaceOnUse">
<stop stop-color="#57D456"/>
<stop offset="1" stop-color="#56D356"/>
</linearGradient>
<linearGradient id="paint4_linear" x1="170.576" y1="208.462" x2="170.576" y2="355" gradientUnits="userSpaceOnUse">
<stop stop-color="#3AC051"/>
<stop offset="1" stop-color="#2BB356"/>
</linearGradient>
</defs>
</svg>
